<?xml version="1.0" encoding="utf-8"?>
<!-- Generator: Adobe Illustrator 24.2.1, SVG Export Plug-In . SVG Version: 6.00 Build 0)  -->
<svg version="1.1" id="Final" xmlns="http://www.w3.org/2000/svg" xmlns:xlink="http://www.w3.org/1999/xlink" x="0px" y="0px"
	 viewBox="0 0 254.45 260.46" style="enable-background:new 0 0 254.45 260.46;" xml:space="preserve">
<style type="text/css">
	.st0{fill:url(#SVGID_1_);}
	.st1{fill:url(#SVGID_2_);}
	.st2{fill:url(#SVGID_3_);}
	.st3{fill:url(#SVGID_4_);}
	.st4{fill:url(#SVGID_5_);}
	.st5{fill:url(#SVGID_6_);}
	.st6{fill:url(#SVGID_7_);}
	.st7{fill:url(#SVGID_8_);}
	.st8{fill:url(#SVGID_9_);}
	.st9{fill:url(#SVGID_10_);}
	.st10{fill:url(#SVGID_11_);}
	.st11{fill:url(#SVGID_12_);}
	.st12{fill:#0061C1;}
	.st13{fill:url(#SVGID_13_);}
	.st14{fill:url(#SVGID_14_);}
	.st15{fill:url(#SVGID_15_);}
	.st16{fill:url(#SVGID_16_);}
	.st17{fill:url(#SVGID_17_);}
	.st18{fill:url(#SVGID_18_);}
	.st19{fill:url(#SVGID_19_);}
	.st20{fill:url(#SVGID_20_);}
	.st21{fill:url(#SVGID_21_);}
	.st22{fill:url(#SVGID_22_);}
</style>
<linearGradient id="SVGID_1_" gradientUnits="userSpaceOnUse" x1="126.017" y1="59.6918" x2="126.017" y2="115.468">
	<stop  offset="0" style="stop-color:#FFCD4D"/>
	<stop  offset="1" style="stop-color:#A24C00"/>
</linearGradient>
<path class="st0" d="M87.05,62.83h21.68v6.64H96.18v9.89h12.1v6.69h-12.1v16.58h-9.13V62.83z M118.08,62.83h9.13v39.8h-9.13V62.83z
	 M164.76,64.03l-0.45,7.45c-1.21-0.75-2.42-1.29-3.61-1.62c-1.2-0.34-2.51-0.5-3.95-0.5c-3.32,0-5.89,1.16-7.69,3.47
	c-1.8,2.32-2.7,5.59-2.7,9.83c0,4.33,0.93,7.67,2.79,10.03c1.86,2.35,4.5,3.53,7.94,3.53c1.25,0,2.49-0.19,3.73-0.56
	c1.23-0.37,2.49-0.95,3.78-1.74l0.39,7.67c-1.42,0.56-2.9,0.98-4.45,1.26c-1.55,0.28-3.17,0.42-4.87,0.42
	c-5.79,0-10.39-1.86-13.81-5.57c-3.42-3.72-5.13-8.73-5.13-15.04c0-6.22,1.69-11.19,5.08-14.93c3.39-3.73,7.9-5.6,13.54-5.6
	c1.57,0,3.13,0.16,4.69,0.48C161.6,62.92,163.17,63.4,164.76,64.03z"/>
<g>
	<g>
		<path class="st12" d="M18.04,192.47h-2.97V198v0.87v4.33h2.02h6.51v2.84h-6.39h-2.14v2.8v0.7v1.07v2.06v8.49H8.93v-8.45v-2.1
			v-1.77v-10.88v-8.33h19.13v2.85H18.04z"/>
		<path class="st12" d="M51.23,221.17c-1.77-4.45-2.47-6.02-2.47-6.02l-2.02-4.91h-9.61l-4.21,10.93h-3.54l13.03-31.54h2.06
			l13.44,31.54H51.23z M41.83,198.33l-3.67,9.11h7.46L41.83,198.33z"/>
		<path class="st12" d="M80.33,192.47h-3.96v19.91v8.78h-6.1v-8.78v-19.91h-3.42h-8.86l0.08-2.85h30.67l0.04,2.85H80.33z"/>
		<path class="st12" d="M100.28,221.17v-8.66v-14.6v-8.29h6.1v8.29v14.6v8.66H100.28z"/>
		<path class="st12" d="M145.75,221.17v-8.86v-14.55l-10.31,23.42h-2.27l-10.22-23.38v12.99v10.39h-2.84v-10.51v-12.95v-8.08h5.65
			l10.27,23.21l10.23-23.21h5.65v8.08v14.6v8.86H145.75z"/>
		<path class="st12" d="M165.58,221.17v-8.66v-14.6v-8.29h6.1v8.29v14.6v8.66H165.58z"/>
		<path class="st12" d="M201.86,208.71v12.45h-6.1V209l-12.08-19.38h7.59l9.11,15.75l9.07-15.75h4L201.86,208.71z"/>
		<path class="st12" d="M236.57,221.17c-1.77-4.45-2.47-6.02-2.47-6.02l-2.02-4.91h-9.61l-4.21,10.93h-3.54l13.03-31.54h2.06
			l13.44,31.54H236.57z M227.17,198.33l-3.67,9.11h7.46L227.17,198.33z"/>
		<path class="st12" d="M8.51,247.31v-3.46v-5.83v-3.31h2.44v3.31v5.83v3.46H8.51z"/>
		<path class="st12" d="M24.08,247.3c-1.22-0.13-2.73-1.05-3.59-2.45l0.82-0.89c1.1,1.6,1.7,2.02,2.75,2.19
			c0.69,0.1,1.24-0.07,1.63-0.4c0.43-0.35,0.64-0.74,0.69-1.2c0.05-0.48-0.07-0.87-0.35-1.22c-0.3-0.36-0.89-0.81-1.86-1.35
			c-0.87-0.49-1.53-0.91-1.99-1.27c-0.48-0.38-0.82-0.86-1.05-1.4c-0.25-0.56-0.33-1.14-0.26-1.71c0.1-0.91,0.49-1.65,1.2-2.19
			c0.69-0.53,1.53-0.74,2.47-0.64c0.51,0.05,1,0.2,1.45,0.41c0.48,0.23,0.92,0.66,1.53,1.5l-0.96,0.79
			c-0.31-0.49-0.4-0.63-0.51-0.74c-0.41-0.49-0.92-0.76-1.53-0.82c-0.61-0.07-1,0.07-1.25,0.3c-0.3,0.26-0.44,0.58-0.48,0.91
			c-0.05,0.41,0.07,0.77,0.36,1.1c0.3,0.36,0.92,0.82,1.88,1.38c0.94,0.56,1.61,0.99,2.04,1.3c0.46,0.35,0.82,0.81,1.05,1.35
			c0.25,0.58,0.33,1.19,0.26,1.86c-0.12,1.05-0.58,1.89-1.37,2.5C26.22,247.21,25.24,247.43,24.08,247.3z"/>
		<path class="st12" d="M37.86,247.31v-3.42v-5.83v-3.34h2.44v11.44h6.54v1.15H37.86z"/>
		<path class="st12" d="M63.92,247.31c-0.71-1.78-0.99-2.4-0.99-2.4l-0.81-1.96h-3.84l-1.68,4.36h-1.42l5.2-12.6h0.82l5.37,12.6
			H63.92z M60.16,238.19l-1.46,3.64h2.98L60.16,238.19z"/>
		<path class="st12" d="M86.34,247.31v-3.54v-5.81l-4.12,9.35h-0.91l-4.08-9.34v5.19v4.15h-1.14v-4.2v-5.17v-3.23h2.26l4.1,9.27
			l4.08-9.27h2.26v3.23v5.83v3.54H86.34z"/>
		<path class="st12" d="M98.86,247.31v-3.46v-5.83v-3.31h2.44v3.31v5.83v3.46H98.86z"/>
		<path class="st12" d="M112.62,245.63c-1.12-1.14-1.68-2.62-1.68-4.41c0-1.19,0.26-2.31,0.77-3.36c0.51-1.05,1.24-1.86,2.17-2.39
			c0.92-0.51,1.93-0.76,3.03-0.76c0.91,0,1.73,0.18,2.49,0.56c0.71,0.36,1.25,0.76,1.71,1.3l0.05,0.35l-0.77,0.76
			c-0.43-0.61-0.61-0.81-0.82-0.97c-0.71-0.56-1.51-0.82-2.4-0.82c-1.09,0-1.93,0.43-2.57,1.3c-0.63,0.89-0.97,2.19-0.97,3.95
			c0,1.66,0.36,2.88,1.05,3.7c0.71,0.84,1.56,1.23,2.6,1.23c0.54,0,1.12-0.13,1.73-0.41c0.44-0.21,0.82-0.54,1.38-1.38l0.91,0.91
			c-1.3,1.48-2.68,2.12-4.36,2.12C115.2,247.31,113.75,246.75,112.62,245.63z"/>
		<path class="st12" d="M142.26,245.63c-1.12-1.14-1.68-2.62-1.68-4.41c0-1.19,0.26-2.31,0.77-3.36c0.51-1.05,1.24-1.86,2.17-2.39
			c0.92-0.51,1.93-0.76,3.03-0.76c0.91,0,1.73,0.18,2.49,0.56c0.71,0.36,1.25,0.76,1.71,1.3l0.05,0.35l-0.77,0.76
			c-0.43-0.61-0.61-0.81-0.82-0.97c-0.71-0.56-1.51-0.82-2.4-0.82c-1.09,0-1.93,0.43-2.57,1.3c-0.63,0.89-0.97,2.19-0.97,3.95
			c0,1.66,0.36,2.88,1.05,3.7c0.71,0.84,1.56,1.23,2.6,1.23c0.54,0,1.12-0.13,1.73-0.41c0.44-0.21,0.82-0.54,1.38-1.38l0.91,0.91
			c-1.3,1.48-2.68,2.12-4.36,2.12C144.85,247.31,143.4,246.75,142.26,245.63z"/>
		<path class="st12" d="M163.63,235.85h-1.2v2.17v0.35v1.76h0.82h2.58v1.14h-2.54h-0.87v1.09v0.26v0.44v0.82v2.27h1.17h4v1.14h-7.62
			v-3.41v-0.82v-0.71v-4.35v-3.31h7.66v1.15H163.63z"/>
		<path class="st12" d="M185.7,247.31l-7.75-10.21v6.95v2.96h-1.14v-2.96v-6.14v-3.19h2.35l6.17,8.25v-5.81v-2.44h1.24v2.57v10.03
			H185.7z"/>
		<path class="st12" d="M204.96,235.85h-1.58v7.95v3.51h-2.44v-3.51v-7.95h-1.37h-3.54l0.03-1.14h12.25l0.02,1.14H204.96z"/>
		<path class="st12" d="M224.84,242.87c0,0,0.91,1.22,2.21,4.45h-2.19c-0.2-0.81-1.78-5.63-4.79-5.63l-0.13-0.02v2.12v3.52h-2.42
			v-3.52v-5.73v-3.34h2.95c1.12,0,2.07,0.07,2.82,0.28c0.74,0.21,1.37,0.53,1.86,1.07c0.49,0.54,0.74,1.2,0.74,1.94
			c0,0.87-0.31,1.63-0.95,2.24c-0.43,0.41-1,0.76-1.7,0.99C223.85,241.67,224.38,242.26,224.84,242.87z M220.3,235.95l-0.36-0.02
			v4.61h1c0.18-0.02,0.36-0.03,0.54-0.08c0.2-0.05,0.38-0.12,0.54-0.17c0.25-0.08,0.48-0.26,0.68-0.46c0.16-0.15,0.3-0.35,0.39-0.63
			c0.1-0.26,0.17-0.59,0.17-1.04c0-0.76-0.2-1.28-0.53-1.71C222.44,236.13,221.69,235.95,220.3,235.95z"/>
		<path class="st12" d="M240.21,235.85h-1.2v2.17v0.35v1.76h0.82h2.58v1.14h-2.54h-0.87v1.09v0.26v0.44v0.82v2.27h1.17h4v1.14h-7.62
			v-3.41v-0.82v-0.71v-4.35v-3.31h7.66v1.15H240.21z"/>
	</g>
</g>
<g>
	<linearGradient id="SVGID_2_" gradientUnits="userSpaceOnUse" x1="126.1529" y1="80.4894" x2="126.1529" y2="148.3822">
		<stop  offset="0" style="stop-color:#0068DF"/>
		<stop  offset="1" style="stop-color:#00108A"/>
	</linearGradient>
	<path class="st1" d="M6.41,87.24c22.24,46.78,99,35.92,119.74,64.53C118.17,109.87,35.01,114.51,6.41,87.24z M126.15,151.77
		c20.74-28.61,97.51-17.75,119.74-64.53C217.3,114.51,134.13,109.87,126.15,151.77z"/>
	<linearGradient id="SVGID_3_" gradientUnits="userSpaceOnUse" x1="185.4372" y1="14.2472" x2="53.2688" y2="175.7295">
		<stop  offset="0" style="stop-color:#FFCD4D"/>
		<stop  offset="1" style="stop-color:#A24C00"/>
	</linearGradient>
	<path class="st2" d="M126.15,3.01c-21.94,28.54-72.01,33.44-72.01,71.82c5.63-23.77,56.2-32.47,72.01-51.44
		c15.81,18.97,66.38,27.67,72.01,51.44C198.17,36.45,148.1,31.56,126.15,3.01z M212.73,94.16c0,0-14.57-0.63-22.15-2.95
		c2.52-12.61-2.83-24.33-18.63-29.02c11.14,9.36,10.81,30.36,3.33,42.84C192.34,98.91,206.29,98.05,212.73,94.16z M80.36,62.18
		C64.55,66.87,59.2,78.59,61.72,91.2c-7.58,2.33-22.15,2.95-22.15,2.95c6.45,3.89,20.39,4.76,37.45,10.87
		C69.55,92.54,69.22,71.54,80.36,62.18z"/>
	<linearGradient id="SVGID_4_" gradientUnits="userSpaceOnUse" x1="172.4907" y1="118.1854" x2="15.1267" y2="178.354">
		<stop  offset="0" style="stop-color:#FFCD4D"/>
		<stop  offset="1" style="stop-color:#A24C00"/>
	</linearGradient>
	<path class="st3" d="M27.9,131.27c15.74,32.15,84.21,20.6,98.25,28.6C113.32,133.91,51.14,147.36,27.9,131.27z M126.15,159.87
		c14.04-8,82.51,3.55,98.25-28.6C201.16,147.36,138.99,133.91,126.15,159.87z"/>
	<linearGradient id="SVGID_5_" gradientUnits="userSpaceOnUse" x1="199.7255" y1="134.901" x2="112.2866" y2="168.3335">
		<stop  offset="0" style="stop-color:#FFCD4D"/>
		<stop  offset="1" style="stop-color:#A24C00"/>
	</linearGradient>
	<path class="st4" d="M224.4,131.27c-24.14,24.37-84.05,12.52-98.25,28.6C138.99,133.91,201.16,147.36,224.4,131.27z"/>
	<linearGradient id="SVGID_6_" gradientUnits="userSpaceOnUse" x1="96.9323" y1="137.9612" x2="27.0071" y2="164.6973">
		<stop  offset="0" style="stop-color:#FFCD4D"/>
		<stop  offset="1" style="stop-color:#A24C00"/>
	</linearGradient>
	<path class="st5" d="M27.9,131.27c24.14,24.37,84.05,12.52,98.25,28.6C113.32,133.91,51.14,147.36,27.9,131.27z"/>
	<linearGradient id="SVGID_7_" gradientUnits="userSpaceOnUse" x1="215.6168" y1="98.6197" x2="140.453" y2="140.4691">
		<stop  offset="0" style="stop-color:#0068DF"/>
		<stop  offset="1" style="stop-color:#00108A"/>
	</linearGradient>
	<path class="st6" d="M245.89,87.24c-21.37,32.38-103.64,29.29-119.74,64.53C134.13,109.87,217.3,114.51,245.89,87.24z"/>
	
		<linearGradient id="SVGID_8_" gradientUnits="userSpaceOnUse" x1="-2537.6252" y1="98.6197" x2="-2612.7891" y2="140.4691" gradientTransform="matrix(-1 0 0 1 -2500.936 0)">
		<stop  offset="0" style="stop-color:#0068DF"/>
		<stop  offset="1" style="stop-color:#00108A"/>
	</linearGradient>
	<path class="st7" d="M6.41,87.24c21.37,32.38,103.64,29.29,119.74,64.53C118.17,109.87,35.01,114.51,6.41,87.24z"/>
	<linearGradient id="SVGID_9_" gradientUnits="userSpaceOnUse" x1="196.3903" y1="73.2233" x2="173.6088" y2="101.0575">
		<stop  offset="0" style="stop-color:#FFCD4D"/>
		<stop  offset="1" style="stop-color:#A24C00"/>
	</linearGradient>
	<path class="st8" d="M183.45,96.98c5.23-10.6,2.48-30.01-11.5-34.8c15.81,4.69,21.16,16.41,18.63,29.02
		c7.58,2.33,22.15,2.95,22.15,2.95C203.89,96.84,192.34,94.09,183.45,96.98z"/>
	
		<linearGradient id="SVGID_10_" gradientUnits="userSpaceOnUse" x1="-2502.9097" y1="73.2233" x2="-2525.6912" y2="101.0576" gradientTransform="matrix(-1 0 0 1 -2446.9941 0)">
		<stop  offset="0" style="stop-color:#FFCD4D"/>
		<stop  offset="1" style="stop-color:#A24C00"/>
	</linearGradient>
	<path class="st9" d="M68.86,96.98c-5.23-10.6-2.48-30.01,11.5-34.8C64.55,66.87,59.2,78.59,61.72,91.2
		c-7.58,2.33-22.15,2.95-22.15,2.95C48.41,96.84,59.96,94.09,68.86,96.98z"/>
	<linearGradient id="SVGID_11_" gradientUnits="userSpaceOnUse" x1="126.153" y1="87.3459" x2="126.153" y2="-20.7435">
		<stop  offset="0" style="stop-color:#FFCD4D"/>
		<stop  offset="1" style="stop-color:#A24C00"/>
	</linearGradient>
	<path class="st10" d="M126.15,14.39c-20.03,21.1-69.4,30.22-72.01,60.44c5.63-23.77,56.2-32.47,72.01-51.44
		c15.81,18.97,66.38,27.67,72.01,51.44C195.56,44.6,146.18,35.49,126.15,14.39z"/>
</g>
</svg>
